# xmcd
#
# Track frame offsets:
#	150
#	15645
#	31117
#	49012
#	59953
#	70573
#	85423
#	98024
#	109141
#	121642
#	134919
#	147773
#	162133
#
# Disc length: 2353 seconds
# Revision: 0
# Processed by: cddbd v1.5.2PL0 Copyright (c) Steve Scherf et al.
# Submitted via: dBpowerAMP V12.0
#
DISCID=ad092f0d
DTITLE=Teeny Tucker - Voodoo To Do You
DYEAR=2013
DGENRE=Blues Female
TTITLE0=Voodoo Woman
TTITLE1=Commit A Crime
TTITLE2=Love Spell
TTITLE3=Voodoo Voodoo
TTITLE4=Tuff Lover
TTITLE5=I Can Do All That
TTITLE6=Shoes
TTITLE7=It's Your Voodoo Workin'
TTITLE8=Muddier Things Get
TTITLE9=I'm A Woman
TTITLE10=Hard Time Killing Floor Blues
TTITLE11=Death Don't Have No Mercy
TTITLE12=Sun Room
EXTD=
EXTT0=
EXTT1=
EXTT2=
EXTT3=
EXTT4=
EXTT5=
EXTT6=
EXTT7=
EXTT8=
EXTT9=
EXTT10=
EXTT11=
EXTT12=
PLAYORDER=
